<?xml version="1.0" encoding="utf-8"?>
<!-- Generator: Adobe Illustrator 18.1.1, SVG Export Plug-In . SVG Version: 6.00 Build 0)  -->
<svg version="1.1" id="Layer_1" xmlns="http://www.w3.org/2000/svg" xmlns:xlink="http://www.w3.org/1999/xlink" x="0px" y="0px"
	 viewBox="0 0 256 256" enable-background="new 0 0 256 256" xml:space="preserve">
<rect fill="#1D5EDF" width="256" height="256"/>
<linearGradient id="SVGID_1_" gradientUnits="userSpaceOnUse" x1="80.0964" y1="93.5576" x2="254.7323" y2="250.7285">
	<stop  offset="0" style="stop-color:#973100"/>
	<stop  offset="0.3726" style="stop-color:#983302;stop-opacity:0.6274"/>
	<stop  offset="0.5069" style="stop-color:#9B3809;stop-opacity:0.4931"/>
	<stop  offset="0.6026" style="stop-color:#9F4214;stop-opacity:0.3974"/>
	<stop  offset="0.68" style="stop-color:#A64F25;stop-opacity:0.32"/>
	<stop  offset="0.7463" style="stop-color:#AF613B;stop-opacity:0.2537"/>
	<stop  offset="0.805" style="stop-color:#BA7757;stop-opacity:0.195"/>
	<stop  offset="0.8581" style="stop-color:#C89177;stop-opacity:0.1419"/>
	<stop  offset="0.9069" style="stop-color:#D7B09D;stop-opacity:9.308982e-002"/>
	<stop  offset="0.9523" style="stop-color:#E9D3C8;stop-opacity:4.767627e-002"/>
	<stop  offset="0.9926" style="stop-color:#FBF8F6;stop-opacity:7.380247e-003"/>
	<stop  offset="1" style="stop-color:#FFFFFF;stop-opacity:0"/>
</linearGradient>
<polygon opacity="0.29" fill="url(#SVGID_1_)" points="256,115.7 256,256 118.4,256 25.1,183.1 212,73.3 "/>
<path fill="#242D3C" d="M41.1,177.9c0-31.4,0-62.9,0-94.3c0-8.7,4.2-12.9,12.8-12.9c49.5,0,99,0,148.5,0c9.5,0,13.4,4,13.4,13.5
	c0,31.3,0,62.5,0,93.8c-2.9,0.3-5.8,0.4-8.6,0c0-32.1,0-64.3,0.1-96.4c0-1.9-0.4-2.5-2.4-2.5c-51,0.1-101.9,0.1-152.9,0
	c-2,0-2.4,0.7-2.4,2.5c0.1,32.1,0,64.3,0.1,96.4C46.8,178.4,43.9,178.2,41.1,177.9z"/>
<path fill="#DAD7DB" d="M231,183.1c-7.5,2.6-14.7,5.5-23,5.4c-53.3-0.2-106.6-0.1-159.8-0.1c-4.8,0-9.4-0.4-13.8-2.3
	c-3-1.2-6.1-2.1-9.2-3.2c1.1-0.6,2.3-0.5,3.5-0.5c66.3,0,132.7,0,199,0C228.8,182.6,230,182.4,231,183.1z"/>
<path fill="#EAEAEA" d="M231,183.1c-1.1-0.7-2.3-0.5-3.4-0.5c-66.3,0-132.7,0-199,0c-1.2,0-2.4-0.1-3.5,0.5c-2.3,0-2.6-1.4-2.5-3.3
	c0.1-2.4,1.9-1.6,3-1.6c5.1-0.1,10.2-0.1,15.4-0.2c2.9,0.3,5.7,0.4,8.6,0c52.5,0,105,0,157.6,0c2.9,0.5,5.8,0.3,8.6,0
	c4.9,0,9.8,0,14.7,0.2c1.3,0.1,3.3-1.2,3.7,1.5C234.6,182.2,233.2,183,231,183.1z"/>
<path fill="#C6C4C1" d="M207.2,177.9c-52.5,0-105,0-157.6,0c0-32.1,0-64.3-0.1-96.4c0-1.8,0.4-2.5,2.4-2.5c51,0.1,101.9,0.1,152.9,0
	c2,0,2.4,0.6,2.4,2.5C207.2,113.6,207.2,145.8,207.2,177.9z"/>
<path fill="#FEFEFD" d="M181.5,141.3c0,3.2-2.2,4.7-7,4.7c-33.2,0-66.5,0-99.7,0c-4.6,0-6.9-1.5-6.9-4.5c0-15.7,0-31.4,0-47.1
	c0-3,2.3-4.5,6.8-4.5c33.2,0,66.5,0,99.7,0c4.8,0,7,1.5,7,4.7C181.5,101.7,181.6,136.8,181.5,141.3z M124.9,100.7
	c-12,0-24.1,0-36.1,0c-4.1,0-6.1,1.2-6.4,3.7c-0.2,2.3-0.2,4.6,0,6.9c0.2,2.3,2.3,3.6,5.9,3.6c24.3,0,48.6,0,72.9,0
	c3.6,0,5.6-1.3,5.8-3.7c0.2-2.1,0.2-4.3,0.1-6.4c-0.2-3-2.2-4.2-6.8-4.2C148.5,100.7,136.7,100.7,124.9,100.7z M124.9,121.8
	c-12,0-24.1,0-36.1,0c-4.1,0-6.1,1.2-6.4,3.8c-0.2,2.3-0.2,4.6,0,6.9c0.2,2.3,2.3,3.6,5.9,3.6c24.3,0,48.6,0,72.9,0
	c3.6,0,5.5-1.3,5.8-3.7c0.2-2,0.2-4,0.1-5.9c-0.1-3.5-1.9-4.6-7.2-4.6C148.3,121.8,136.6,121.8,124.9,121.8z"/>
<path fill="#1B5E20" d="M178.8,121.1c-2-2.3-4-4.5-6-6.8c-2.3-2.5-2.5-4.8-0.8-6.7c1.7-1.8,4-1.7,6.7,0.3c4.1,5.4,4.1,5.4,7.9,0.1
	c2.3-3.2,4.6-6.5,7-9.7c1.7-2.3,4-2.8,6.1-1.4c2.1,1.4,2.5,3.9,0.8,6.4c-4,5.7-8,11.3-12,16.9C184.8,125.1,183.2,125.3,178.8,121.1z
	"/>
<path fill="#1B5E20" d="M124.9,100.7c11.8,0,23.6,0,35.4,0c4.6,0,6.6,1.2,6.8,4.2c0.1,2.1,0.1,4.3-0.1,6.4c-0.3,2.4-2.2,3.6-5.8,3.7
	c-24.3,0-48.6,0-72.9,0c-3.6,0-5.6-1.3-5.9-3.6c-0.2-2.3-0.2-4.6,0-6.9c0.2-2.6,2.3-3.7,6.4-3.7
	C100.9,100.7,112.9,100.7,124.9,100.7z M106.8,109.9c3.8,0,7.6,0,11.5,0c2.3,0,4-0.4,4-2.1c0-1.5-1.6-2-3.8-2c-7.8,0-15.5,0-23.3,0
	c-2.2,0-3.6,0.6-3.6,2.1c0,1.6,1.6,2,3.7,2C99.2,109.9,103,109.9,106.8,109.9z"/>
<path fill="#D50000" d="M124.9,121.8c11.7,0,23.4,0,35.1,0c5.2,0,7.1,1.2,7.2,4.6c0.1,2,0.1,4-0.1,5.9c-0.3,2.4-2.2,3.7-5.8,3.7
	c-24.3,0-48.6,0-72.9,0c-3.6,0-5.6-1.3-5.9-3.6c-0.2-2.3-0.2-4.6,0-6.9c0.2-2.6,2.3-3.7,6.4-3.8
	C100.9,121.8,112.9,121.8,124.9,121.8z M115.6,130.9c6.4,0,12.7,0,19.1,0c2.4,0,5,0.1,5-2.1c-0.1-2-2.5-2-4.8-2
	c-12.9,0-25.7,0-38.6,0c-2.4,0-4.6,0.1-4.6,2.2c0,2,2.2,2,4.4,2C102.6,130.9,109.1,130.9,115.6,130.9z"/>
<path fill="#FEFEFD" d="M106.8,109.9c-3.8,0-7.6,0-11.5,0c-2.1,0-3.7-0.4-3.7-2c0-1.6,1.4-2.1,3.6-2.1c7.8,0,15.5,0,23.3,0
	c2.1,0,3.7,0.5,3.8,2c0,1.7-1.7,2.1-4,2.1C114.5,109.9,110.7,109.9,106.8,109.9z"/>
<path fill="#FEFEFD" d="M115.6,131c-6.5,0-13,0-19.5,0c-2.2,0-4.4,0-4.4-2c0-2.1,2.2-2.2,4.6-2.2c12.9,0,25.7,0,38.6,0
	c2.3,0,4.8,0,4.8,2c0.1,2.2-2.6,2.1-5,2.1C128.3,131,121.9,131,115.6,131z"/>
<path fill="#FEFEFD" d="M124.9,151.3c16.2,0,32.5,0,48.7,0c6.5,0,8.4,1.3,8.4,5.6c0,2.5,0.1,4.9,0,7.4c-0.1,2.6-2,3.9-5.7,4.3
	c-1,0.1-2.1,0.1-3.1,0.1c-32.2,0-64.5,0-96.7,0c-1.2,0-2.3,0-3.5-0.1c-3.5-0.4-5.3-1.7-5.4-4.2c-0.1-2.6,0-5.3,0-7.9
	c0-3.7,2.2-5.2,7.7-5.2C91.7,151.3,108.3,151.3,124.9,151.3z M124.6,157.9c-5.5,0-11,0-16.5,0c-2.2,0-3.8,0.5-3.9,2.1
	c-0.1,1.7,1.6,2.2,4,2.2c11,0,21.9,0,32.9,0c2.3,0,4.1-0.5,4.1-2.2c0-1.7-1.9-2.2-4.2-2.1C135.6,158,130.1,157.9,124.6,157.9z"/>
<path fill="#1B5E20" d="M124.6,157.5c5.5,0,11,0,16.5,0c2.3,0,4.1,0.6,4.2,2.7c0,2.1-1.8,2.8-4.1,2.8c-11,0-21.9,0-32.9,0
	c-2.3,0-4.1-0.7-4-2.8c0.1-1.9,1.7-2.7,3.9-2.6C113.7,157.5,119.2,157.5,124.6,157.5z"/>
</svg>
